<svg width="532" height="211" xmlns="http://www.w3.org/2000/svg" xmlns:xlink="http://www.w3.org/1999/xlink" overflow="hidden"><defs><clipPath id="clip0"><rect x="92" y="142" width="532" height="211"/></clipPath><clipPath id="clip1"><rect x="92" y="143" width="531" height="210"/></clipPath><clipPath id="clip2"><rect x="92" y="143" width="531" height="210"/></clipPath><clipPath id="clip3"><rect x="92" y="143" width="531" height="210"/></clipPath></defs><g clip-path="url(#clip0)" transform="translate(-92 -142)"><g clip-path="url(#clip1)"><g clip-path="url(#clip2)"><g clip-path="url(#clip3)"><path d="M157.809 411.128C142.548 411.128 130.177 423.499 130.177 438.759 130.177 454.02 142.548 466.391 157.808 466.391 173.069 466.391 185.44 454.02 185.44 438.76 185.44 423.499 173.069 411.128 157.809 411.128Z" fill="#000000" fill-rule="evenodd" fill-opacity="1" transform="matrix(1.00358 0 0 1 149.444 -190.75)"/><path d="M71.2166 59.1536 71.2166 114.417C86.4771 114.417 98.8484 102.046 98.8484 86.7857 98.8485 71.5251 86.4774 59.1539 71.2168 59.1539Z" fill="#000000" fill-rule="evenodd" fill-opacity="1" transform="matrix(1.00358 0 0 1 97.1298 161.224)"/><path d="M13.1411 0.066026 13.1411 173.008 33.7647 173.008 33.7874 173.008 71.2166 173.485C71.5978 173.457 71.9789 173.426 72.3597 173.393 76.2626 173.342 80.1575 173.028 84.018 172.453 84.3034 172.415 84.5886 172.375 84.8736 172.334 93.492 170.981 101.857 168.334 109.685 164.484 121.866 158.432 132.452 149.599 140.588 138.699L140.588 138.435C151.761 123.526 157.837 105.416 157.916 86.7855 157.837 68.1501 151.758 50.0357 140.58 35.1249L140.58 34.8711C140.578 34.8693 140.577 34.8674 140.576 34.8655 137.843 31.2143 134.826 27.7844 131.553 24.6079 131.253 24.3104 130.951 24.0152 130.647 23.7222 127.116 20.375 123.311 17.3308 119.27 14.6219 115.212 11.9379 110.936 9.60017 106.486 7.63355 106.1 7.46693 105.713 7.30312 105.326 7.14212 103.2 6.24285 101.039 5.42883 98.8484 4.70199L98.8484 4.66426C98.7061 4.62837 98.5637 4.59284 98.4211 4.55768 96.4266 3.88771 94.4083 3.29056 92.3703 2.76743 91.968 2.66141 91.5649 2.55828 91.1611 2.45805 89.2797 2.01436 87.384 1.63371 85.4772 1.31675 85.2689 1.28423 85.0604 1.25248 84.8519 1.22148 82.1682 0.775129 79.4651 0.455335 76.7514 0.263161 75.0137 0.160474 73.2733 0.110146 71.5325 0.112244 71.4272 0.103248 71.3219 0.0944446 71.2166 0.0858338 71.0414 0.100707 70.8663 0.116113 70.6912 0.132052 70.4412 0.144803 70.1912 0.158637 69.9413 0.173554L34.657 0.173554ZM209.936 0.0858338C184.376 0.20236 160.169 11.5921 143.785 31.2114 152.34 42.3632 158.395 55.5265 161.089 69.8696 168.27 48.9862 187.853 34.9125 209.936 34.7655 238.666 34.7654 261.956 58.0555 261.956 86.7852 261.956 115.515 238.666 138.805 209.936 138.805 187.853 138.658 168.27 124.584 161.089 103.7 158.396 118.042 152.348 131.208 143.794 142.36 160.176 161.976 184.379 173.366 209.936 173.485 257.819 173.485 296.636 134.668 296.636 86.7855 296.636 38.9026 257.819 0.0858915 209.936 0.0858329ZM71.7051 34.8117C74.542 34.8447 77.3713 35.1097 80.165 35.604 80.5907 35.6751 81.0155 35.7516 81.4393 35.8332 84.2062 36.3903 86.9231 37.1717 89.5633 38.1696 89.9737 38.3251 90.3822 38.4858 90.7885 38.6516 93.4088 39.7142 95.9382 40.9886 98.3513 42.4622 106.717 47.5664 113.471 54.9299 117.836 63.7047 121.396 70.8977 123.244 78.817 123.235 86.843 123.233 88.0991 123.186 89.3547 123.094 90.6074 123.09 90.6533 123.087 90.6993 123.083 90.7451 121.675 109.131 110.639 125.397 94.0757 133.501 92.7008 134.173 91.2968 134.785 89.868 135.333 89.5203 135.459 89.1713 135.582 88.821 135.7 87.7063 136.103 86.5781 136.467 85.4386 136.792 84.9656 136.926 84.4908 137.053 84.0143 137.174 82.8934 137.457 81.7635 137.703 80.6262 137.911 80.2306 137.991 79.8341 138.066 79.4368 138.136 77.9224 138.381 76.3979 138.559 74.8678 138.669 74.5852 138.682 74.3026 138.692 74.0198 138.701 72.9473 138.753 71.8734 138.772 70.7997 138.758 70.592 138.736 70.3845 138.713 70.1771 138.688L70.1771 138.758 58.0755 138.758 47.6245 138.758 47.6245 34.8306 58.0755 34.8306 70.6412 34.8306C70.656 34.8303 70.6707 34.8299 70.6855 34.8296L70.7468 34.8306 70.7468 34.8287C71.0662 34.8201 71.3857 34.8144 71.7051 34.8117Z" fill="#000000" fill-rule="evenodd" fill-opacity="1" transform="matrix(1.00358 0 0 1 97.1298 161.224)"/><path d="M442.343 494.725C448.567 494.725 453.612 499.771 453.612 505.994L453.612 514.19C453.612 520.414 448.567 525.459 442.343 525.459L328.97 525.459C322.746 525.459 317.701 520.414 317.701 514.19L317.701 505.994C317.701 499.771 322.746 494.725 328.97 494.725Z" fill="#000000" fill-rule="evenodd" fill-opacity="1" transform="matrix(1.00358 0 0 1 149.444 -190.75)"/><path d="M263.85 352.04C260.97 352.04 258.089 353.147 255.882 355.361L250.087 361.173C245.672 365.6 245.672 372.728 250.087 377.156L311.5 438.749 250.087 500.343C245.672 504.771 245.672 511.899 250.087 516.326L255.882 522.138C260.296 526.566 267.404 526.566 271.819 522.138L341.2 452.555 346.996 446.741C349.203 444.528 350.307 441.638 350.307 438.749 350.307 438.569 350.301 438.388 350.294 438.208 350.164 435.502 349.066 432.833 346.996 430.757L341.201 424.945 341.2 424.944 271.819 355.361C269.612 353.147 266.731 352.04 263.851 352.04Z" fill="#000000" fill-rule="evenodd" fill-opacity="1" transform="matrix(1.00358 0 0 1 149.444 -190.75)"/><path d="M13.1411 0.066026 13.1411 173.008 33.7647 173.008 33.7874 173.008 71.2166 173.485C71.5978 173.457 71.9789 173.426 72.3597 173.393 76.2626 173.342 80.1575 173.028 84.018 172.453 84.3034 172.415 84.5886 172.375 84.8736 172.334 93.492 170.981 101.857 168.334 109.685 164.484 121.866 158.432 132.452 149.599 140.588 138.699L140.588 138.435C151.761 123.526 157.837 105.416 157.916 86.7855 157.837 68.1501 151.758 50.0357 140.58 35.1249L140.58 34.8711C140.578 34.8693 140.577 34.8674 140.576 34.8655 137.843 31.2143 134.826 27.7844 131.553 24.6079 131.253 24.3104 130.951 24.0152 130.647 23.7222 127.116 20.375 123.311 17.3308 119.27 14.6219 115.212 11.9379 110.936 9.60017 106.486 7.63355 106.1 7.46693 105.713 7.30312 105.326 7.14212 103.2 6.24285 101.039 5.42883 98.8484 4.70199L98.8484 4.66426C98.7061 4.62837 98.5637 4.59284 98.4211 4.55768 96.4266 3.88771 94.4083 3.29056 92.3703 2.76743 91.968 2.66141 91.5649 2.55828 91.1611 2.45805 89.2797 2.01436 87.384 1.63371 85.4772 1.31675 85.2689 1.28423 85.0604 1.25248 84.8519 1.22148 82.1682 0.775129 79.4651 0.455335 76.7514 0.263161 75.0137 0.160474 73.2733 0.110146 71.5325 0.112244 71.4272 0.103248 71.3219 0.0944446 71.2166 0.0858338 71.0414 0.100707 70.8663 0.116113 70.6912 0.132052 70.4412 0.144803 70.1912 0.158637 69.9413 0.173554L34.657 0.173554ZM209.936 0.0858338C184.376 0.20236 160.169 11.5921 143.785 31.2114 152.34 42.3632 158.395 55.5265 161.089 69.8696 168.27 48.9862 187.853 34.9125 209.936 34.7655 238.666 34.7654 261.956 58.0555 261.956 86.7852 261.956 115.515 238.666 138.805 209.936 138.805 187.853 138.658 168.27 124.584 161.089 103.7 158.396 118.042 152.348 131.208 143.794 142.36 160.176 161.976 184.379 173.366 209.936 173.485 257.819 173.485 296.636 134.668 296.636 86.7855 296.636 38.9026 257.819 0.0858915 209.936 0.0858329ZM71.7051 34.8117C74.542 34.8447 77.3713 35.1097 80.165 35.604 80.5907 35.6751 81.0155 35.7516 81.4393 35.8332 84.2062 36.3903 86.9231 37.1717 89.5633 38.1696 89.9737 38.3251 90.3822 38.4858 90.7885 38.6516 93.4088 39.7142 95.9382 40.9886 98.3513 42.4622 106.717 47.5664 113.471 54.9299 117.836 63.7047 121.396 70.8977 123.244 78.817 123.235 86.843 123.233 88.0991 123.186 89.3547 123.094 90.6074 123.09 90.6533 123.087 90.6993 123.083 90.7451 121.675 109.131 110.639 125.397 94.0757 133.501 92.7008 134.173 91.2968 134.785 89.868 135.333 89.5203 135.459 89.1713 135.582 88.821 135.7 87.7063 136.103 86.5781 136.467 85.4386 136.792 84.9656 136.926 84.4908 137.053 84.0143 137.174 82.8934 137.457 81.7635 137.703 80.6262 137.911 80.2306 137.991 79.8341 138.066 79.4368 138.136 77.9224 138.381 76.3979 138.559 74.8678 138.669 74.5852 138.682 74.3026 138.692 74.0198 138.701 72.9473 138.753 71.8734 138.772 70.7997 138.758 70.592 138.736 70.3845 138.713 70.1771 138.688L70.1771 138.758 58.0755 138.758 47.6245 138.758 47.6245 34.8306 58.0755 34.8306 70.6412 34.8306C70.656 34.8303 70.6707 34.8299 70.6855 34.8296L70.7468 34.8306 70.7468 34.8287C71.0662 34.8201 71.3857 34.8144 71.7051 34.8117Z" fill="#000000" fill-rule="evenodd" fill-opacity="1" transform="matrix(1.00358 0 0 1 97.1298 161.224)"/></g></g></g></g></svg>