<svg width="532" height="211" xmlns="http://www.w3.org/2000/svg" xmlns:xlink="http://www.w3.org/1999/xlink" overflow="hidden"><defs><clipPath id="clip0"><rect x="92" y="142" width="532" height="211"/></clipPath><clipPath id="clip1"><rect x="92" y="143" width="531" height="210"/></clipPath><clipPath id="clip2"><rect x="92" y="143" width="531" height="210"/></clipPath><clipPath id="clip3"><rect x="92" y="143" width="531" height="210"/></clipPath></defs><g clip-path="url(#clip0)" transform="translate(-92 -142)"><g clip-path="url(#clip1)"><g clip-path="url(#clip2)"><g clip-path="url(#clip3)"><path d="M157.808 411.127C142.548 411.127 130.177 423.498 130.177 438.758 130.177 454.019 142.547 466.39 157.808 466.39 173.069 466.39 185.44 454.019 185.44 438.758 185.44 423.498 173.069 411.127 157.808 411.127Z" fill="#FFFFFF" fill-rule="evenodd" fill-opacity="1" transform="matrix(1.00358 0 0 1 149.444 -190.749)"/><path d="M71.2165 59.1533 71.2165 114.417C86.4771 114.417 98.8479 102.046 98.8484 86.7857 98.8484 71.5251 86.4771 59.1538 71.2165 59.1538Z" fill="#FFFFFF" fill-rule="evenodd" fill-opacity="1" transform="matrix(1.00358 0 0 1 97.1298 161.225)"/><path d="M13.141 0.066026 13.141 173.007 33.7647 173.007 33.7873 173.007 71.2165 173.485C71.5975 173.457 71.9786 173.426 72.3596 173.392 76.2622 173.342 80.1575 173.028 84.0181 172.453 84.3035 172.415 84.5884 172.375 84.8733 172.334 93.4917 170.981 101.857 168.334 109.685 164.484 121.866 158.432 132.452 149.599 140.588 138.698L140.588 138.434C151.761 123.526 157.837 105.416 157.916 86.7853 157.837 68.1499 151.757 50.0356 140.58 35.1248L140.58 34.8711C140.578 34.8692 140.577 34.8673 140.576 34.8654 137.842 31.2142 134.825 27.7844 131.553 24.6078 131.253 24.3104 130.95 24.0151 130.646 23.7221 127.116 20.3749 123.311 17.3308 119.27 14.6219 115.212 11.9379 110.936 9.60015 106.485 7.63351 106.1 7.4669 105.713 7.30309 105.325 7.14213 103.2 6.24286 101.039 5.42883 98.8484 4.70198L98.8484 4.66425C98.7059 4.62837 98.5635 4.59284 98.421 4.55767 96.4265 3.8877 94.4083 3.29055 92.3704 2.76743 91.9676 2.6614 91.5648 2.55827 91.1611 2.45805 89.2796 2.01436 87.3841 1.63371 85.477 1.31674 85.2688 1.28423 85.0602 1.25247 84.8516 1.22148 82.1679 0.775125 79.465 0.455334 76.7514 0.26316 75.0133 0.160474 73.2733 0.110146 71.5323 0.112244 71.4271 0.103248 71.3218 0.0944446 71.2165 0.0858334 71.0412 0.100707 70.8659 0.116113 70.6911 0.132051 70.4409 0.144803 70.1912 0.158637 69.9411 0.173554L34.657 0.173554ZM209.936 0.0858334C184.375 0.20236 160.169 11.5921 143.784 31.2113 152.34 42.3631 158.394 55.5265 161.089 69.8696 168.269 48.9862 187.853 34.9124 209.936 34.7654 238.665 34.7654 261.956 58.0552 261.956 86.7853 261.956 115.515 238.666 138.805 209.936 138.805 187.853 138.658 168.269 124.584 161.089 103.7 158.396 118.042 152.348 131.208 143.794 142.359 160.176 161.976 184.379 173.365 209.936 173.485 257.818 173.485 296.635 134.668 296.635 86.7853 296.635 38.9025 257.818 0.0858913 209.936 0.0858329ZM71.7052 34.8117C74.542 34.8446 77.371 35.1096 80.1647 35.604 80.5907 35.6751 81.0152 35.7515 81.4392 35.8332 84.2059 36.3903 86.9229 37.1716 89.5631 38.1695 89.9736 38.325 90.3821 38.4857 90.7883 38.6515 93.4087 39.7141 95.9378 40.9885 98.351 42.4622 106.717 47.5663 113.471 54.9296 117.835 63.7045 121.396 70.8978 123.244 78.8169 123.235 86.8427 123.233 88.0988 123.186 89.3544 123.094 90.6072 123.09 90.6531 123.086 90.6989 123.082 90.7448 121.675 109.131 110.639 125.397 94.0756 133.501 92.7007 134.173 91.2968 134.784 89.8678 135.333 89.5201 135.459 89.1709 135.582 88.8208 135.7 87.7062 136.102 86.5781 136.466 85.4384 136.791 84.9656 136.926 84.4908 137.053 84.0142 137.173 82.8933 137.457 81.7632 137.703 80.6259 137.911 80.2304 137.99 79.8339 138.065 79.4365 138.135 77.922 138.38 76.3979 138.558 74.8675 138.669 74.5849 138.682 74.3024 138.692 74.0199 138.7 72.9473 138.753 71.8733 138.772 70.7997 138.758 70.5921 138.736 70.3844 138.712 70.1767 138.688L70.1767 138.758 58.0754 138.758 47.6244 138.758 47.6244 34.8305 58.0754 34.8305 70.6408 34.8305C70.6558 34.8302 70.6708 34.8299 70.6853 34.8295L70.7466 34.8305 70.7466 34.8286C71.0658 34.82 71.3855 34.8144 71.7052 34.8117Z" fill="#FFFFFF" fill-rule="evenodd" fill-opacity="1" transform="matrix(1.00358 0 0 1 97.1298 161.225)"/><path d="M442.342 494.725C448.566 494.725 453.611 499.77 453.611 505.994L453.611 514.189C453.611 520.413 448.566 525.458 442.342 525.458L328.969 525.458C322.746 525.458 317.7 520.413 317.7 514.189L317.7 505.994C317.7 499.77 322.746 494.725 328.969 494.725Z" fill="#FFFFFF" fill-rule="evenodd" fill-opacity="1" transform="matrix(1.00358 0 0 1 149.444 -190.749)"/><path d="M263.85 352.041C260.97 352.041 258.089 353.147 255.881 355.361L250.086 361.173C245.672 365.601 245.672 372.728 250.086 377.155L311.5 438.75 250.086 500.343C245.672 504.771 245.672 511.899 250.086 516.325L255.881 522.138C260.296 526.565 267.404 526.565 271.819 522.138L341.199 452.554 346.996 446.741C349.203 444.527 350.307 441.637 350.307 438.75 350.307 438.569 350.301 438.388 350.294 438.208 350.164 435.503 349.066 432.832 346.996 430.757L341.201 424.945 341.201 424.943 271.819 355.361C269.612 353.147 266.73 352.041 263.85 352.041Z" fill="#FFFFFF" fill-rule="evenodd" fill-opacity="1" transform="matrix(1.00358 0 0 1 149.444 -190.749)"/><path d="M13.141 0.066026 13.141 173.007 33.7647 173.007 33.7873 173.007 71.2165 173.485C71.5975 173.457 71.9786 173.426 72.3596 173.392 76.2622 173.342 80.1575 173.028 84.0181 172.453 84.3035 172.415 84.5884 172.375 84.8733 172.334 93.4917 170.981 101.857 168.334 109.685 164.484 121.866 158.432 132.452 149.599 140.588 138.698L140.588 138.434C151.761 123.526 157.837 105.416 157.916 86.7853 157.837 68.1499 151.757 50.0356 140.58 35.1248L140.58 34.8711C140.578 34.8692 140.577 34.8673 140.576 34.8654 137.842 31.2142 134.825 27.7844 131.553 24.6078 131.253 24.3104 130.95 24.0151 130.646 23.7221 127.116 20.3749 123.311 17.3308 119.27 14.6219 115.212 11.9379 110.936 9.60015 106.485 7.63351 106.1 7.4669 105.713 7.30309 105.325 7.14213 103.2 6.24286 101.039 5.42883 98.8484 4.70198L98.8484 4.66425C98.7059 4.62837 98.5635 4.59284 98.421 4.55767 96.4265 3.8877 94.4083 3.29055 92.3704 2.76743 91.9676 2.6614 91.5648 2.55827 91.1611 2.45805 89.2796 2.01436 87.3841 1.63371 85.477 1.31674 85.2688 1.28423 85.0602 1.25247 84.8516 1.22148 82.1679 0.775125 79.465 0.455334 76.7514 0.26316 75.0133 0.160474 73.2733 0.110146 71.5323 0.112244 71.4271 0.103248 71.3218 0.0944446 71.2165 0.0858334 71.0412 0.100707 70.8659 0.116113 70.6911 0.132051 70.4409 0.144803 70.1912 0.158637 69.9411 0.173554L34.657 0.173554ZM209.936 0.0858334C184.375 0.20236 160.169 11.5921 143.784 31.2113 152.34 42.3631 158.394 55.5265 161.089 69.8696 168.269 48.9862 187.853 34.9124 209.936 34.7654 238.665 34.7654 261.956 58.0552 261.956 86.7853 261.956 115.515 238.666 138.805 209.936 138.805 187.853 138.658 168.269 124.584 161.089 103.7 158.396 118.042 152.348 131.208 143.794 142.359 160.176 161.976 184.379 173.365 209.936 173.485 257.818 173.485 296.635 134.668 296.635 86.7853 296.635 38.9025 257.818 0.0858913 209.936 0.0858329ZM71.7052 34.8117C74.542 34.8446 77.371 35.1096 80.1647 35.604 80.5907 35.6751 81.0152 35.7515 81.4392 35.8332 84.2059 36.3903 86.9229 37.1716 89.5631 38.1695 89.9736 38.325 90.3821 38.4857 90.7883 38.6515 93.4087 39.7141 95.9378 40.9885 98.351 42.4622 106.717 47.5663 113.471 54.9296 117.835 63.7045 121.396 70.8978 123.244 78.8169 123.235 86.8427 123.233 88.0988 123.186 89.3544 123.094 90.6072 123.09 90.6531 123.086 90.6989 123.082 90.7448 121.675 109.131 110.639 125.397 94.0756 133.501 92.7007 134.173 91.2968 134.784 89.8678 135.333 89.5201 135.459 89.1709 135.582 88.8208 135.7 87.7062 136.102 86.5781 136.466 85.4384 136.791 84.9656 136.926 84.4908 137.053 84.0142 137.173 82.8933 137.457 81.7632 137.703 80.6259 137.911 80.2304 137.99 79.8339 138.065 79.4365 138.135 77.922 138.38 76.3979 138.558 74.8675 138.669 74.5849 138.682 74.3024 138.692 74.0199 138.7 72.9473 138.753 71.8733 138.772 70.7997 138.758 70.5921 138.736 70.3844 138.712 70.1767 138.688L70.1767 138.758 58.0754 138.758 47.6244 138.758 47.6244 34.8305 58.0754 34.8305 70.6408 34.8305C70.6558 34.8302 70.6708 34.8299 70.6853 34.8295L70.7466 34.8305 70.7466 34.8286C71.0658 34.82 71.3855 34.8144 71.7052 34.8117Z" fill="#FFFFFF" fill-rule="evenodd" fill-opacity="1" transform="matrix(1.00358 0 0 1 97.1298 161.225)"/></g></g></g></g></svg>